<svg xmlns="http://www.w3.org/2000/svg" xmlns:xlink="http://www.w3.org/1999/xlink" width="1440" height="1024" viewBox="0 0 1440 1024">
  <defs>
    <pattern id="grid" width="28" height="28" patternUnits="userSpaceOnUse">
      <path d="M28 0H0V28" fill="none" stroke="#4b6bff" stroke-opacity=".055"/>
    </pattern>
    <filter id="phoneShadow" x="-30%" y="-20%" width="160%" height="170%">
      <feDropShadow dx="0" dy="30" stdDeviation="28" flood-color="#2d4375" flood-opacity=".24"/>
    </filter>
    <filter id="buttonShadow" x="-20%" y="-60%" width="140%" height="220%">
      <feDropShadow dx="0" dy="12" stdDeviation="12" flood-color="#4b6bff" flood-opacity=".25"/>
    </filter>
    <clipPath id="screenA"><rect x="249" y="145" width="392" height="819" rx="32"/></clipPath>
    <clipPath id="screenB"><rect x="799" y="145" width="392" height="819" rx="32"/></clipPath>
    <clipPath id="thumbA"><rect x="826" y="558" width="58" height="58" rx="12"/></clipPath>
    <clipPath id="thumbB"><rect x="826" y="649" width="58" height="58" rx="12"/></clipPath>
    <clipPath id="thumbC"><rect x="826" y="740" width="58" height="58" rx="12"/></clipPath>
    <style>
      text { font-family: "Microsoft YaHei", "DengXian", sans-serif; fill: #18233d; letter-spacing: 0; }
      .latin { font-family: "Bahnschrift", "Microsoft YaHei", sans-serif; }
      .boardTitle { font-size: 29px; font-weight: 800; }
      .boardSub { font-size: 12px; font-weight: 600; fill: #7483a2; }
      .meta { font-size: 10px; font-weight: 700; fill: #7483a2; }
      .state { font-size: 12px; font-weight: 800; }
      .pageTitle { font-size: 18px; font-weight: 800; }
      .label { font-size: 10px; font-weight: 700; fill: #7483a2; }
      .sectionTitle { font-size: 13px; font-weight: 800; }
      .small { font-size: 10px; }
      .tiny { font-size: 8px; }
      .muted { fill: #7483a2; }
      .white { fill: #fff; }
      .blue { fill: #4b6bff; }
      .green { fill: #16876c; }
      .softLight { fill: #aeb8d9; }
      .lime { fill: #c9f36a; }
      .bold { font-weight: 800; }
      .medium { font-weight: 600; }
      .icon { fill: none; stroke: currentColor; stroke-linecap: round; stroke-linejoin: round; stroke-width: 2; }
    </style>
    <symbol id="i-back" viewBox="0 0 24 24"><path class="icon" d="m15 18-6-6 6-6"/></symbol>
    <symbol id="i-image" viewBox="0 0 24 24"><rect class="icon" x="3" y="5" width="18" height="14" rx="2"/><circle class="icon" cx="9" cy="10" r="2"/><path class="icon" d="m4 17 4-4 3 3 3-4 6 6"/></symbol>
    <symbol id="i-plus" viewBox="0 0 24 24"><path class="icon" d="M12 5v14M5 12h14"/></symbol>
    <symbol id="i-lock" viewBox="0 0 24 24"><rect class="icon" x="5" y="10" width="14" height="10" rx="2"/><path class="icon" d="M8 10V7a4 4 0 0 1 8 0v3M12 14v2"/></symbol>
    <symbol id="i-check" viewBox="0 0 24 24"><path class="icon" d="m5 12 4 4L19 6"/></symbol>
    <symbol id="i-download" viewBox="0 0 24 24"><path class="icon" d="M12 3v12M7 10l5 5 5-5M5 21h14"/></symbol>
    <symbol id="i-arrow" viewBox="0 0 24 24"><path class="icon" d="M5 12h14M14 7l5 5-5 5"/></symbol>
    <symbol id="i-archive" viewBox="0 0 24 24"><path class="icon" d="M4 7h16v13H4zM3 4h18v3H3zM9 11h6"/></symbol>
    <symbol id="i-loader" viewBox="0 0 24 24"><path class="icon" d="M12 3a9 9 0 1 1-8.5 6"/></symbol>
  </defs>

  <rect width="1440" height="1024" fill="#dfe8f8"/>
  <rect width="1440" height="1024" fill="url(#grid)"/>
  <rect width="1440" height="10" fill="#151b3b"/>

  <g transform="translate(64 38)">
    <rect width="42" height="42" rx="8" fill="#151b3b"/>
    <text x="21" y="28" text-anchor="middle" class="latin white" font-size="20" font-weight="800">F</text>
    <text x="56" y="23" class="boardTitle">图片压缩</text>
    <text x="56" y="43" class="boardSub">FunBox / TinyPNG 批量压缩工作流</text>
  </g>
  <g transform="translate(966 48)">
    <circle cx="5" cy="5" r="5" fill="#1db991"/><text x="17" y="9" class="meta">密钥仅保留在服务端</text>
    <circle cx="153" cy="5" r="5" fill="#4b6bff"/><text x="165" y="9" class="meta">390 × 822 主界面</text>
    <circle cx="285" cy="5" r="5" fill="#ff6b8f"/><text x="297" y="9" class="meta">上传 / 完成双状态</text>
  </g>

  <g>
    <rect x="248" y="100" width="22" height="22" rx="6" fill="#151b3b"/><text x="259" y="115" text-anchor="middle" class="latin tiny bold white">01</text>
    <text x="279" y="116" class="state">上传与压缩策略</text>
    <rect x="798" y="100" width="22" height="22" rx="6" fill="#151b3b"/><text x="809" y="115" text-anchor="middle" class="latin tiny bold white">02</text>
    <text x="829" y="116" class="state">压缩完成与批量下载</text>
  </g>

  <g filter="url(#phoneShadow)">
    <rect x="240" y="136" width="410" height="838" rx="40" fill="#10162f"/>
    <rect x="790" y="136" width="410" height="838" rx="40" fill="#10162f"/>
  </g>
  <rect x="249" y="145" width="392" height="819" rx="32" fill="#eef4ff"/>
  <rect x="799" y="145" width="392" height="819" rx="32" fill="#eef4ff"/>
  <rect x="394" y="153" width="102" height="24" rx="12" fill="#080d20"/>
  <rect x="944" y="153" width="102" height="24" rx="12" fill="#080d20"/>

  <!-- Upload state -->
  <g clip-path="url(#screenA)">
    <text x="273" y="174" class="latin tiny bold">9:41</text>
    <g stroke="#18233d" stroke-width="1.6" stroke-linecap="round">
      <path d="M591 169v4M596 167v6M601 165v8"/><path d="M608 168q6-6 12 0M611 171q3-3 6 0"/><rect x="625" y="165" width="13" height="8" rx="2" fill="none"/><path d="M638 168h2"/>
    </g>

    <use xlink:href="#i-back" x="265" y="194" width="22" height="22" style="color:#18233d"/>
    <text x="445" y="211" text-anchor="middle" class="pageTitle">图片压缩</text>
    <text x="621" y="210" text-anchor="end" class="small bold blue">记录</text>

    <text x="266" y="252" class="label">高质量图片瘦身</text>
    <circle cx="547" cy="248" r="4" fill="#1db991"/><circle cx="547" cy="248" r="8" fill="#1db991" fill-opacity=".12"/>
    <text x="621" y="252" text-anchor="end" class="small bold green">TinyPNG 在线</text>

    <rect x="264" y="270" width="362" height="300" rx="22" fill="#151b3b"/>
    <g opacity=".3" fill="none" stroke="#7997ff">
      <rect x="485" y="286" width="210" height="48" rx="8" transform="rotate(-13 485 286)"/>
      <rect x="187" y="516" width="210" height="48" rx="8" transform="rotate(-13 187 516)"/>
    </g>
    <rect x="409" y="306" width="72" height="72" rx="18" fill="#fff" fill-opacity=".1" stroke="#fff" stroke-opacity=".15"/>
    <use xlink:href="#i-image" x="429" y="326" width="32" height="32" style="color:#b9c6ff"/>
    <text x="445" y="418" text-anchor="middle" class="white" font-size="22" font-weight="800">添加需要压缩的图片</text>
    <text x="445" y="447" text-anchor="middle" class="softLight" font-size="11" font-weight="600">支持 JPG、PNG、WebP</text>
    <text x="445" y="466" text-anchor="middle" class="softLight" font-size="11" font-weight="600">单次最多 20 张，每张不超过 5 MB</text>
    <rect x="372" y="490" width="146" height="48" rx="15" fill="#ff6b8f"/>
    <use xlink:href="#i-plus" x="394" y="505" width="18" height="18" style="color:#fff"/>
    <text x="429" y="520" class="white" font-size="13" font-weight="800">选择图片</text>

    <text x="266" y="610" class="sectionTitle">压缩策略</text>
    <text x="621" y="609" text-anchor="end" class="tiny bold muted">上传前可调整</text>
    <rect x="264" y="624" width="362" height="72" rx="17" fill="#fff" stroke="#dce5f7"/>
    <rect x="268" y="628" width="175" height="64" rx="13" fill="#e3e9ff"/>
    <text x="356" y="653" text-anchor="middle" fill="#344fc9" font-size="11" font-weight="800">智能压缩</text>
    <text x="356" y="672" text-anchor="middle" fill="#536dcc" class="tiny medium">体积与画质平衡</text>
    <text x="533" y="653" text-anchor="middle" class="small bold muted">优先画质</text>
    <text x="533" y="672" text-anchor="middle" class="tiny medium muted">保留更多细节</text>

    <rect x="264" y="710" width="362" height="66" rx="15" fill="#fff" fill-opacity=".7" stroke="#dce5f7"/>
    <use xlink:href="#i-lock" x="278" y="729" width="18" height="18" style="color:#1db991"/>
    <text x="308" y="733" class="small medium muted">图片经安全通道发送至 TinyPNG，压缩完成后</text>
    <text x="308" y="751" class="small medium muted">自动清理临时文件。</text>
  </g>

  <!-- Result state -->
  <g clip-path="url(#screenB)">
    <text x="823" y="174" class="latin tiny bold">9:41</text>
    <g stroke="#18233d" stroke-width="1.6" stroke-linecap="round">
      <path d="M1141 169v4M1146 167v6M1151 165v8"/><path d="M1158 168q6-6 12 0M1161 171q3-3 6 0"/><rect x="1175" y="165" width="13" height="8" rx="2" fill="none"/><path d="M1188 168h2"/>
    </g>

    <use xlink:href="#i-back" x="815" y="194" width="22" height="22" style="color:#18233d"/>
    <text x="995" y="211" text-anchor="middle" class="pageTitle">压缩结果</text>
    <text x="1171" y="210" text-anchor="end" class="small bold blue">继续添加</text>

    <rect x="814" y="238" width="362" height="210" rx="22" fill="#151b3b"/>
    <rect x="1070" y="264" width="190" height="49" rx="8" transform="rotate(-14 1070 264)" fill="none" stroke="#7997ff" stroke-opacity=".34"/>
    <text x="834" y="273" class="small bold softLight">本次共节省</text>
    <text x="834" y="327" class="latin white" font-size="44" font-weight="800">71</text><text x="893" y="327" class="lime" font-size="20" font-weight="800">%</text>
    <rect x="1108" y="261" width="46" height="46" rx="15" fill="#c9f36a"/>
    <use xlink:href="#i-check" x="1119" y="272" width="24" height="24" style="color:#173a35"/>
    <path d="M834 349h322" stroke="#fff" stroke-opacity=".13"/>
    <path d="M941 365v59M1048 365v59" stroke="#fff" stroke-opacity=".13"/>
    <text x="834" y="376" class="tiny bold softLight">原始体积</text><text x="834" y="397" class="latin white" font-size="12" font-weight="700">9.3 MB</text>
    <text x="958" y="376" class="tiny bold softLight">压缩后</text><text x="958" y="397" class="latin white" font-size="12" font-weight="700">2.7 MB</text>
    <text x="1065" y="376" class="tiny bold softLight">图片数</text><text x="1065" y="397" class="latin white" font-size="12" font-weight="700">3 张</text>

    <text x="816" y="493" class="sectionTitle">文件列表</text>
    <text x="1174" y="493" text-anchor="end" class="tiny bold muted">2 张完成 · 1 张处理中</text>

    <rect x="814" y="547" width="362" height="82" rx="17" fill="#fff" stroke="#dce5f7"/>
    <rect x="826" y="558" width="58" height="58" rx="12" fill="#cbd8ee"/>
    <image x="826" y="558" width="58" height="58" preserveAspectRatio="xMidYMid slice" clip-path="url(#thumbA)" href="thumb-landscape.jpg" xlink:href="thumb-landscape.jpg"/>
    <text x="896" y="573" class="small bold">mountain-trip.jpg</text>
    <text x="896" y="597" class="latin tiny medium muted">4.8 MB</text><use xlink:href="#i-arrow" x="930" y="588" width="11" height="11" style="color:#9aa6c1"/>
    <text x="947" y="597" class="latin tiny medium muted">1.1 MB</text><text x="990" y="597" class="tiny bold green">省 77%</text>
    <rect x="1129" y="571" width="34" height="34" rx="11" fill="#edf2ff"/><use xlink:href="#i-download" x="1138" y="580" width="16" height="16" style="color:#4b6bff"/>

    <rect x="814" y="638" width="362" height="82" rx="17" fill="#fff" stroke="#dce5f7"/>
    <rect x="826" y="649" width="58" height="58" rx="12" fill="#ffced9"/>
    <image x="826" y="649" width="58" height="58" preserveAspectRatio="xMidYMid slice" clip-path="url(#thumbB)" href="thumb-icon.png" xlink:href="thumb-icon.png"/>
    <text x="896" y="664" class="small bold">funbox-icon.png</text>
    <text x="896" y="688" class="latin tiny medium muted">2.6 MB</text><use xlink:href="#i-arrow" x="930" y="679" width="11" height="11" style="color:#9aa6c1"/>
    <text x="947" y="688" class="latin tiny medium muted">820 KB</text><text x="990" y="688" class="tiny bold green">省 68%</text>
    <rect x="1129" y="662" width="34" height="34" rx="11" fill="#edf2ff"/><use xlink:href="#i-download" x="1138" y="671" width="16" height="16" style="color:#4b6bff"/>

    <rect x="814" y="729" width="362" height="82" rx="17" fill="#fff" stroke="#dce5f7"/>
    <rect x="826" y="740" width="58" height="58" rx="12" fill="#d8e5ff"/>
    <image x="826" y="740" width="58" height="58" preserveAspectRatio="xMidYMid slice" clip-path="url(#thumbC)" href="thumb-game.jpg" xlink:href="thumb-game.jpg"/>
    <text x="896" y="755" class="small bold">tetris-design.png</text>
    <text x="896" y="776" class="latin tiny medium muted">1.9 MB</text><text x="939" y="776" class="tiny bold muted">正在压缩 68%</text>
    <rect x="896" y="788" width="174" height="4" rx="2" fill="#e9eef9"/><rect x="896" y="788" width="118" height="4" rx="2" fill="#f1b643"/>
    <rect x="1129" y="753" width="34" height="34" rx="11" fill="#fff7e4"/><use xlink:href="#i-loader" x="1138" y="762" width="16" height="16" style="color:#f1b643"/>

    <rect x="799" y="843" width="392" height="121" fill="#eef4ff" fill-opacity=".97"/>
    <rect x="814" y="867" width="362" height="54" rx="17" fill="#4b6bff" filter="url(#buttonShadow)"/>
    <use xlink:href="#i-archive" x="891" y="884" width="19" height="19" style="color:#fff"/>
    <text x="921" y="901" class="white" font-size="13" font-weight="800">打包下载全部图片</text>
  </g>

  <text x="720" y="1005" text-anchor="middle" class="meta latin">FUNBOX UI / IMAGE COMPRESSOR V1 · SECURE PROXY · TINYPNG API</text>
</svg>
